<svg xmlns="http://www.w3.org/2000/svg" viewBox="0 0 1000 195.2"><defs><style>.cls-1{fill:#fff;}</style></defs><g id="Layer_2" data-name="Layer 2"><g id="Layer_1-2" data-name="Layer 1"><path class="cls-1" d="M307.87,131.43v27.2H293v-27.2h-8.46v63H293V166.2h14.86v28.28h8.46v-63Z"/><path class="cls-1" d="M343.9,187V166.28h15.31v-7.56H343.9V138.9H362v-7.47H335.42v63h26.85V187Z"/><path class="cls-1" d="M375.6,131.43v7.47h11v55.58h8.48V138.9h11v-7.47Z"/><path class="cls-1" d="M478.89,131.43,465.3,170.61l-13.43-39.18h-8.09v63h7.92V151.61L463,184.74h4.78l11.34-33.13v42.87h8.2v-63Z"/><path class="cls-1" d="M514.83,187V166.28h15.31v-7.56H514.83V138.9h18.11v-7.47H506.37v63H533.2V187Z"/><path class="cls-1" d="M566,131.43H550.4v63H566c9.54,0,15.3-4.06,15.3-13.33V144.76C581.29,135.48,575.53,131.43,566,131.43Zm6.84,48.09c0,5.59-2.52,7.48-7.21,7.48h-6.74V138.9h6.74c4.69,0,7.21,1.89,7.21,7.47Z"/><path class="cls-1" d="M600.38,131.43v63h8.48v-63Z"/><path class="cls-1" d="M647.49,131.43H637l-12.52,63h8.19l2.72-14.87h13.5l2.61,14.87h8.65Zm-10.8,41.07,5.48-30.45,5.41,30.45Z"/><path class="cls-1" d="M667.57,131.43v7.47h11v55.58H687V138.9h11v-7.47Z"/><path class="cls-1" d="M713.59,131.43v63h8.47v-63Z"/><path class="cls-1" d="M757.18,130.7h-.72c-9.54,0-15.3,4-15.3,13.34v37.83c0,9.27,5.76,13.33,15.3,13.33h.72c9.56,0,15.32-4.06,15.32-13.33V144C772.5,134.76,766.74,130.7,757.18,130.7ZM764,180.24c0,5.59-2.52,7.48-7.2,7.48s-7.21-1.89-7.21-7.48V145.65c0-5.58,2.52-7.47,7.21-7.47s7.2,1.89,7.2,7.47Z"/><path class="cls-1" d="M815.55,131.43v43.42L799.7,131.43h-8.47v63h7.84V149.61l16.2,44.87h8.11v-63Z"/><path class="cls-1" d="M865.8,131.43v27.2H850.94v-27.2h-8.47v63h8.47V166.2H865.8v28.28h8.47v-63Z"/><path class="cls-1" d="M915.34,131.43v48.81c0,5.59-2.17,7.48-6.85,7.48s-6.84-1.89-6.84-7.48V131.43h-8.46v50.44c0,9.55,5.57,13.33,15.13,13.33h.35c9.54,0,15.13-3.87,15.13-13.33V131.43Z"/><path class="cls-1" d="M943.08,131.43v63h8.46v-63Z"/><path class="cls-1" d="M991.17,161.15l-8.19-4.5c-3.61-2.08-5-3.43-5-7.21v-4.33c0-5,2.44-7,6.75-7s6.75,2,6.75,7v8.57h8.29v-10c0-9.1-6.31-13-14.94-13h-.19c-8.64,0-14.94,3.88-14.94,13v7.93c0,6,3,8.74,8.82,12.06l8.1,4.51c3.69,2.06,5.06,3.69,5.06,7.47v5c0,5-2.44,7.2-6.85,7.2s-6.85-2.24-6.85-7.2v-9.28h-8.28v10.72c0,9.54,5.48,13.15,15,13.15H985c9.54,0,15-3.7,15-13.15v-8.74C1000,167.28,996.57,164.22,991.17,161.15Z"/><polygon class="cls-1" points="0 138.15 5.38 148.9 22.52 140.33 22.52 195.2 34.54 195.2 34.54 134.31 106.07 98.54 177.61 134.31 177.61 195.2 189.63 195.2 189.63 140.33 206.77 148.9 212.15 138.15 106.07 85.1 0 138.15"/><path class="cls-1" d="M229.19,0H164.63a16.79,16.79,0,0,0-16.78,16.76V85.1l30-30h51.31A16.79,16.79,0,0,0,246,38.3V16.76A16.78,16.78,0,0,0,229.19,0Zm4.75,38.3a4.76,4.76,0,0,1-4.75,4.75H172.9l-13,13V16.76A4.75,4.75,0,0,1,164.63,12h64.56a4.76,4.76,0,0,1,4.75,4.75Z"/></g></g></svg>