<svg xmlns="http://www.w3.org/2000/svg" viewBox="0 0 1000 793.62"><defs><style>.cls-1{fill:#fff;}</style></defs><g id="Layer_2" data-name="Layer 2"><g id="Layer_1-2" data-name="Layer 1"><polygon class="cls-1" points="0 561.67 21.86 605.39 91.55 570.53 91.55 793.62 140.42 793.62 140.42 546.09 431.26 400.63 722.1 546.09 722.1 793.62 770.98 793.62 770.98 570.53 840.66 605.39 862.52 561.67 431.26 345.98 0 561.67"/><path class="cls-1" d="M931.8,0H669.33a68.25,68.25,0,0,0-68.2,68.14V346L723.22,223.9H931.8a68.26,68.26,0,0,0,68.2-68.19V68.14A68.25,68.25,0,0,0,931.8,0Zm19.32,155.71A19.35,19.35,0,0,1,931.8,175H703L650,228V68.14a19.35,19.35,0,0,1,19.31-19.32H931.8a19.36,19.36,0,0,1,19.32,19.32Z"/></g></g></svg>