<svg xmlns="http://www.w3.org/2000/svg" viewBox="0 0 1000 90.15"><defs><style>.cls-1{fill:#fff;}</style></defs><g id="Layer_2" data-name="Layer 2"><g id="Layer_1-2" data-name="Layer 1"><path class="cls-1" d="M32.6,1V39H11.82V1H0V89.15H11.82V49.61H32.6V89.15H44.43V1Z"/><path class="cls-1" d="M83,78.7v-29h21.39V39.16H83V11.46h25.29V1H71.11V89.15h37.53V78.7Z"/><path class="cls-1" d="M127.26,1V11.46h15.35V89.15h11.85V11.46h15.35V1Z"/><path class="cls-1" d="M271.64,1l-19,54.76L233.87,1H222.56V89.15h11.07V29.22l15.73,46.32h6.69l15.86-46.32V89.15h11.45V1Z"/><path class="cls-1" d="M321.87,78.7v-29h21.4V39.16h-21.4V11.46h25.31V1H310.05V89.15h37.5V78.7Z"/><path class="cls-1" d="M393.37,1H371.59V89.15h21.78c13.34,0,21.4-5.68,21.4-18.63V19.65C414.77,6.68,406.71,1,393.37,1Zm9.57,67.22c0,7.81-3.52,10.46-10.08,10.46h-9.43V11.46h9.43c6.56,0,10.08,2.64,10.08,10.45Z"/><path class="cls-1" d="M441.45,1V89.15H453.3V1Z"/><path class="cls-1" d="M507.3,1H492.68l-17.5,88.13h11.46l3.79-20.78H509.3L513,89.15H525ZM492.19,58.43l7.67-42.57,7.56,42.57Z"/><path class="cls-1" d="M535.35,1V11.46h15.37V89.15h11.83V11.46h15.37V1Z"/><path class="cls-1" d="M599.68,1V89.15h11.85V1Z"/><path class="cls-1" d="M660.61,0h-1c-13.34,0-21.39,5.55-21.39,18.65V71.52c0,13,8,18.63,21.39,18.63h1C674,90.15,682,84.47,682,71.52V18.65C682,5.68,674,0,660.61,0Zm9.57,69.25c0,7.81-3.53,10.45-10.06,10.45S650,77.06,650,69.25V20.9c0-7.8,3.53-10.45,10.09-10.45s10.06,2.65,10.06,10.45Z"/><path class="cls-1" d="M742.19,1V61.71L720,1H708.19V89.15h11V26.44L741.8,89.15h11.34V1Z"/><path class="cls-1" d="M812.42,1V39H791.66V1H779.82V89.15h11.84V49.61h20.76V89.15h11.85V1Z"/><path class="cls-1" d="M881.67,1V69.25c0,7.81-3,10.45-9.57,10.45s-9.57-2.64-9.57-10.45V1H850.7v70.5c0,13.34,7.79,18.63,21.15,18.63h.5c13.34,0,21.14-5.41,21.14-18.63V1Z"/><path class="cls-1" d="M920.44,1V89.15h11.83V1Z"/><path class="cls-1" d="M987.66,42.57l-11.45-6.3c-5-2.91-6.93-4.79-6.93-10.08v-6c0-7,3.4-9.82,9.43-9.82s9.44,2.77,9.44,9.82v12h11.58v-14C999.73,5.43,990.92,0,978.85,0h-.27C966.51,0,957.7,5.43,957.7,18.14V29.22c0,8.43,4.26,12.22,12.34,16.87l11.31,6.29c5.17,2.89,7.07,5.17,7.07,10.45v6.93c0,6.93-3.4,10.06-9.57,10.06s-9.57-3.13-9.57-10.06v-13H957.7v15c0,13.34,7.67,18.38,21,18.38H979c13.34,0,21-5.16,21-18.38V59.55C1000,51.13,995.2,46.85,987.66,42.57Z"/></g></g></svg>