<svg xmlns="http://www.w3.org/2000/svg" viewBox="0 0 1000 431.65"><defs><style>.cls-1{fill:#fff;}</style></defs><g id="Layer_2" data-name="Layer 2"><g id="Layer_1-2" data-name="Layer 1"><path class="cls-1" d="M32.6,342.53v38H11.82v-38H0v88.12H11.82V391.12H32.6v39.53H44.43V342.53Z"/><path class="cls-1" d="M83,420.2v-29h21.39V380.67H83V353h25.29V342.53H71.11v88.12h37.53V420.2Z"/><path class="cls-1" d="M127.26,342.53V353h15.35v77.69h11.85V353h15.35V342.53Z"/><path class="cls-1" d="M271.64,342.53l-19,54.76-18.77-54.76H222.56v88.12h11.07V370.73L249.36,417h6.69l15.86-46.31v59.92h11.45V342.53Z"/><path class="cls-1" d="M321.87,420.2v-29h21.4V380.67h-21.4V353h25.31V342.53H310.05v88.12h37.5V420.2Z"/><path class="cls-1" d="M393.37,342.53H371.59v88.12h21.78c13.34,0,21.4-5.68,21.4-18.63V361.16C414.77,348.18,406.71,342.53,393.37,342.53Zm9.57,67.22c0,7.8-3.52,10.45-10.08,10.45h-9.43V353h9.43c6.56,0,10.08,2.64,10.08,10.45Z"/><path class="cls-1" d="M441.45,342.53v88.12H453.3V342.53Z"/><path class="cls-1" d="M507.3,342.53H492.68l-17.5,88.12h11.46l3.79-20.78H509.3L513,430.65H525Zm-15.11,57.4,7.67-42.56,7.56,42.56Z"/><path class="cls-1" d="M535.35,342.53V353h15.37v77.69h11.83V353h15.37V342.53Z"/><path class="cls-1" d="M599.68,342.53v88.12h11.85V342.53Z"/><path class="cls-1" d="M660.61,341.5h-1c-13.34,0-21.39,5.56-21.39,18.65V413c0,13,8,18.62,21.39,18.62h1C674,431.65,682,426,682,413V360.15C682,347.18,674,341.5,660.61,341.5Zm9.57,69.25c0,7.81-3.53,10.45-10.06,10.45S650,418.56,650,410.75V362.41c0-7.81,3.53-10.45,10.09-10.45s10.06,2.64,10.06,10.45Z"/><path class="cls-1" d="M742.19,342.53v60.68L720,342.53H708.19v88.12h11V367.94l22.64,62.71h11.34V342.53Z"/><path class="cls-1" d="M812.42,342.53v38H791.66v-38H779.82v88.12h11.84V391.12h20.76v39.53h11.85V342.53Z"/><path class="cls-1" d="M881.67,342.53v68.22c0,7.81-3,10.45-9.57,10.45s-9.57-2.64-9.57-10.45V342.53H850.7V413c0,13.34,7.79,18.62,21.15,18.62h.5c13.34,0,21.14-5.41,21.14-18.62v-70.5Z"/><path class="cls-1" d="M920.44,342.53v88.12h11.83V342.53Z"/><path class="cls-1" d="M987.66,384.07l-11.45-6.29c-5-2.91-6.93-4.8-6.93-10.09v-6c0-7,3.4-9.82,9.43-9.82s9.44,2.77,9.44,9.82v12h11.58v-14c0-12.71-8.81-18.14-20.88-18.14h-.27c-12.07,0-20.88,5.43-20.88,18.14v11.09c0,8.42,4.26,12.21,12.34,16.86l11.31,6.29c5.17,2.89,7.07,5.17,7.07,10.46v6.92c0,6.93-3.4,10.07-9.57,10.07s-9.57-3.14-9.57-10.07v-13H957.7v15c0,13.34,7.67,18.38,21,18.38H979c13.34,0,21-5.16,21-18.38V401.06C1000,392.63,995.2,388.35,987.66,384.07Z"/><polygon class="cls-1" points="357.01 193.09 364.53 208.12 388.49 196.14 388.49 272.83 405.29 272.83 405.29 187.74 505.27 137.73 605.26 187.74 605.26 272.83 622.06 272.83 622.06 196.14 646.02 208.12 653.53 193.09 505.27 118.94 357.01 193.09"/><path class="cls-1" d="M677.35,0H587.12a23.46,23.46,0,0,0-23.45,23.42v95.52l42-42h71.71A23.47,23.47,0,0,0,700.8,53.53V23.42A23.46,23.46,0,0,0,677.35,0ZM684,53.53a6.65,6.65,0,0,1-6.64,6.64H598.68l-18.2,18.22v-55a6.66,6.66,0,0,1,6.64-6.64h90.23A6.66,6.66,0,0,1,684,23.42Z"/></g></g></svg>